<svg xmlns="http://www.w3.org/2000/svg" viewBox="0 0 1000 1000" width="1000" height="1000" class="rounded-lg w-full" preserveAspectRatio="xMidYMid meet" style="width: 100%; height: 100%; transform: translate3d(0px, 0px, 0px);"><defs><clipPath id="__lottie_element_2"><rect width="1000" height="1000" x="0" y="0"></rect></clipPath><clipPath id="__lottie_element_145"><path d="M0,0 L1000,0 L1000,1000 L0,1000z"></path></clipPath><clipPath id="__lottie_element_227"><path d="M0,0 L1000,0 L1000,1000 L0,1000z"></path></clipPath><clipPath id="__lottie_element_231"><path d="M0,0 L1000,0 L1000,1000 L0,1000z"></path></clipPath></defs><g clip-path="url(#__lottie_element_2)"><g style="display: block;" transform="matrix(1,0,0,1,-0.25,-0.25)" opacity="1"><image width="1001px" height="1001px" preserveAspectRatio="xMidYMid slice" xlink:href="https://static.snoweb.io/wagtail_lottie/5fa167387ade4cf39bcd5435318b07ac/images/img_75.png"></image></g><g style="display: block;" transform="matrix(1,0,0,1,618.830078125,768.3643188476562)" opacity="1"><image width="101px" height="82px" preserveAspectRatio="xMidYMid slice" xlink:href="https://static.snoweb.io/wagtail_lottie/5fa167387ade4cf39bcd5435318b07ac/images/img_74.png"></image></g><g style="display: block;" transform="matrix(1,0,0,1,54.27301025390625,295.6750183105469)" opacity="1"><image width="892px" height="603px" preserveAspectRatio="xMidYMid slice" xlink:href="https://static.snoweb.io/wagtail_lottie/5fa167387ade4cf39bcd5435318b07ac/images/img_73.png"></image></g><g clip-path="url(#__lottie_element_227)" style="display: block;" transform="matrix(1,0,0,1,0,0)" opacity="1"><g clip-path="url(#__lottie_element_231)" style="display: block;" transform="matrix(1,0,0,1,0,0)" opacity="1"><g style="display: block;" transform="matrix(1,0,0,1,713.6650390625,260.62200927734375)" opacity="1"><image width="184px" height="317px" preserveAspectRatio="xMidYMid slice" xlink:href="https://static.snoweb.io/wagtail_lottie/5fa167387ade4cf39bcd5435318b07ac/images/img_16.png"></image></g><g style="display: block;" transform="matrix(1,0,0,1,691.779296875,299.2839660644531)" opacity="1"><image width="42px" height="36px" preserveAspectRatio="xMidYMid slice" xlink:href="https://static.snoweb.io/wagtail_lottie/5fa167387ade4cf39bcd5435318b07ac/images/img_15.png"></image></g><g style="display: block;" transform="matrix(1,0,0,1,689.8969116210938,337.607421875)" opacity="1"><image width="42px" height="36px" preserveAspectRatio="xMidYMid slice" xlink:href="https://static.snoweb.io/wagtail_lottie/5fa167387ade4cf39bcd5435318b07ac/images/img_14.png"></image></g><g style="display: block;" transform="matrix(1,0,0,1,700.6329956054688,375.8046875)" opacity="1"><image width="42px" height="36px" preserveAspectRatio="xMidYMid slice" xlink:href="https://static.snoweb.io/wagtail_lottie/5fa167387ade4cf39bcd5435318b07ac/images/img_13.png"></image></g><g style="display: block;" transform="matrix(1,0,0,1,719.5517578125,407.9908752441406)" opacity="1"><image width="42px" height="36px" preserveAspectRatio="xMidYMid slice" xlink:href="https://static.snoweb.io/wagtail_lottie/5fa167387ade4cf39bcd5435318b07ac/images/img_12.png"></image></g><g style="display: block;" transform="matrix(1,0,0,1,742.8787841796875,438.1214294433594)" opacity="1"><image width="42px" height="36px" preserveAspectRatio="xMidYMid slice" xlink:href="https://static.snoweb.io/wagtail_lottie/5fa167387ade4cf39bcd5435318b07ac/images/img_11.png"></image></g><g style="display: block;" transform="matrix(1,0,0,1,775.4398803710938,466.1943359375)" opacity="1"><image width="42px" height="36px" preserveAspectRatio="xMidYMid slice" xlink:href="https://static.snoweb.io/wagtail_lottie/5fa167387ade4cf39bcd5435318b07ac/images/img_10.png"></image></g><g style="display: block;" transform="matrix(1,0,0,1,816.5208740234375,471.48492431640625)" opacity="1"><image width="42px" height="36px" preserveAspectRatio="xMidYMid slice" xlink:href="https://static.snoweb.io/wagtail_lottie/5fa167387ade4cf39bcd5435318b07ac/images/img_9.png"></image></g><g style="display: block;" transform="matrix(1,0,0,1,855.3397827148438,441.4773864746094)" opacity="1"><image width="42px" height="36px" preserveAspectRatio="xMidYMid slice" xlink:href="https://static.snoweb.io/wagtail_lottie/5fa167387ade4cf39bcd5435318b07ac/images/img_8.png"></image></g><g style="display: block;" transform="matrix(1,0,0,1,859.5093383789062,397.06463623046875)" opacity="1"><image width="42px" height="36px" preserveAspectRatio="xMidYMid slice" xlink:href="https://static.snoweb.io/wagtail_lottie/5fa167387ade4cf39bcd5435318b07ac/images/img_7.png"></image></g><g style="display: block;" transform="matrix(1,0,0,1,845.476806640625,351.05303955078125)" opacity="1"><image width="42px" height="36px" preserveAspectRatio="xMidYMid slice" xlink:href="https://static.snoweb.io/wagtail_lottie/5fa167387ade4cf39bcd5435318b07ac/images/img_6.png"></image></g><g style="display: block;" transform="matrix(1,0,0,1,821.6476440429688,308.4684143066406)" opacity="1"><image width="42px" height="36px" preserveAspectRatio="xMidYMid slice" xlink:href="https://static.snoweb.io/wagtail_lottie/5fa167387ade4cf39bcd5435318b07ac/images/img_5.png"></image></g><g style="display: block;" transform="matrix(1,0,0,1,794.114013671875,278.64532470703125)" opacity="1"><image width="42px" height="36px" preserveAspectRatio="xMidYMid slice" xlink:href="https://static.snoweb.io/wagtail_lottie/5fa167387ade4cf39bcd5435318b07ac/images/img_4.png"></image></g><g style="display: block;" transform="matrix(1,0,0,1,759.334716796875,259.7237243652344)" opacity="1"><image width="42px" height="36px" preserveAspectRatio="xMidYMid slice" xlink:href="https://static.snoweb.io/wagtail_lottie/5fa167387ade4cf39bcd5435318b07ac/images/img_3.png"></image></g><g style="display: block;" transform="matrix(1,0,0,1,714.2924194335938,264.32171630859375)" opacity="1"><image width="42px" height="36px" preserveAspectRatio="xMidYMid slice" xlink:href="https://static.snoweb.io/wagtail_lottie/5fa167387ade4cf39bcd5435318b07ac/images/img_2.png"></image></g><g style="display: block;" transform="matrix(1,0,0,1,692.9630126953125,276.7900085449219)" opacity="1"><image width="177px" height="296px" preserveAspectRatio="xMidYMid slice" xlink:href="https://static.snoweb.io/wagtail_lottie/5fa167387ade4cf39bcd5435318b07ac/images/img_1.png"></image></g></g></g><g style="display: block;" transform="matrix(1,0,0,1,475.8990173339844,593.7650146484375)" opacity="1"><image width="111px" height="128px" preserveAspectRatio="xMidYMid slice" xlink:href="https://static.snoweb.io/wagtail_lottie/5fa167387ade4cf39bcd5435318b07ac/images/img_55.png"></image></g><g style="display: block;" transform="matrix(1,0,0,1,623.06103515625,748.6409912109375)" opacity="1"><image width="95px" height="101px" preserveAspectRatio="xMidYMid slice" xlink:href="https://static.snoweb.io/wagtail_lottie/5fa167387ade4cf39bcd5435318b07ac/images/img_54.png"></image></g><g style="display: block;" transform="matrix(1,0,0,1,500,500)" opacity="1"><g opacity="1" transform="matrix(1,0,0,1,0,0)"><path fill="rgb(255,255,255)" fill-opacity="0.02" d=" M-266,-8 C-266,-8 -372,50 -372,50 C-372,50 0,260 0,260 C0,260 60,224 60,224"></path><path stroke-linecap="round" stroke-linejoin="round" fill-opacity="0" stroke="rgb(248,237,235)" stroke-opacity="1" stroke-width="24" d=" M-266,-8 C-266,-8 -372,50 -372,50 C-372,50 0,260 0,260 C0,260 60,224 60,224"></path></g></g><g style="display: block;" transform="matrix(1,0,0,1,648.6409912109375,473.1709899902344)" opacity="1"><image width="57px" height="63px" preserveAspectRatio="xMidYMid slice" xlink:href="https://static.snoweb.io/wagtail_lottie/5fa167387ade4cf39bcd5435318b07ac/images/img_53.png"></image></g><g style="display: block;" transform="matrix(1,0,0,1,739.5239868164062,529.1690063476562)" opacity="1"><image width="57px" height="63px" preserveAspectRatio="xMidYMid slice" xlink:href="https://static.snoweb.io/wagtail_lottie/5fa167387ade4cf39bcd5435318b07ac/images/img_52.png"></image></g><g style="display: block;" transform="matrix(1,0,0,1,358.1360168457031,328.3690185546875)" opacity="1"><image width="40px" height="45px" preserveAspectRatio="xMidYMid slice" xlink:href="https://static.snoweb.io/wagtail_lottie/5fa167387ade4cf39bcd5435318b07ac/images/img_51.png"></image></g><g style="display: block;" transform="matrix(1,0,0,1,142.60299682617188,458.8070068359375)" opacity="1"><image width="36px" height="41px" preserveAspectRatio="xMidYMid slice" xlink:href="https://static.snoweb.io/wagtail_lottie/5fa167387ade4cf39bcd5435318b07ac/images/img_50.png"></image></g><g style="display: block;" transform="matrix(1,0,0,1,96.50199890136719,481.8690185546875)" opacity="1"><image width="40px" height="45px" preserveAspectRatio="xMidYMid slice" xlink:href="https://static.snoweb.io/wagtail_lottie/5fa167387ade4cf39bcd5435318b07ac/images/img_49.png"></image></g><g style="display: block;" transform="matrix(1,0,0,1,149.79299926757812,554.968994140625)" opacity="1"><image width="36px" height="41px" preserveAspectRatio="xMidYMid slice" xlink:href="https://static.snoweb.io/wagtail_lottie/5fa167387ade4cf39bcd5435318b07ac/images/img_48.png"></image></g><g style="display: block;" transform="matrix(1,0,0,1,247.4219970703125,610.8690185546875)" opacity="1"><image width="36px" height="41px" preserveAspectRatio="xMidYMid slice" xlink:href="https://static.snoweb.io/wagtail_lottie/5fa167387ade4cf39bcd5435318b07ac/images/img_47.png"></image></g><g style="display: block;" transform="matrix(1,0,0,1,345.0489807128906,666.77001953125)" opacity="1"><image width="36px" height="41px" preserveAspectRatio="xMidYMid slice" xlink:href="https://static.snoweb.io/wagtail_lottie/5fa167387ade4cf39bcd5435318b07ac/images/img_46.png"></image></g><g style="display: block;" transform="matrix(1,0,0,1,442.67999267578125,722.6699829101562)" opacity="1"><image width="36px" height="41px" preserveAspectRatio="xMidYMid slice" xlink:href="https://static.snoweb.io/wagtail_lottie/5fa167387ade4cf39bcd5435318b07ac/images/img_45.png"></image></g><g style="display: block;" transform="matrix(1,0,0,1,400.9309997558594,105.87899780273438)" opacity="1"><image width="110px" height="295px" preserveAspectRatio="xMidYMid slice" xlink:href="https://static.snoweb.io/wagtail_lottie/5fa167387ade4cf39bcd5435318b07ac/images/img_44.png"></image></g><g style="display: block;" transform="matrix(1,0,0,1,204.07901000976562,210.53599548339844)" opacity="1"><image width="252px" height="306px" preserveAspectRatio="xMidYMid slice" xlink:href="https://static.snoweb.io/wagtail_lottie/5fa167387ade4cf39bcd5435318b07ac/images/img_43.png"></image></g><g style="display: block;" transform="matrix(1,0,0,1,200.35400390625,221.6739959716797)" opacity="1"><image width="110px" height="295px" preserveAspectRatio="xMidYMid slice" xlink:href="https://static.snoweb.io/wagtail_lottie/5fa167387ade4cf39bcd5435318b07ac/images/img_42.png"></image></g><g style="display: block;" transform="matrix(1,0,0,1,126.54400634765625,526.9410400390625)" opacity="1"><image width="408px" height="263px" preserveAspectRatio="xMidYMid slice" xlink:href="https://static.snoweb.io/wagtail_lottie/5fa167387ade4cf39bcd5435318b07ac/images/img_41.png"></image></g><g style="display: block;" transform="matrix(1,0,0,1,506.51202392578125,328.0479736328125)" opacity="1"><image width="134px" height="134px" preserveAspectRatio="xMidYMid slice" xlink:href="https://static.snoweb.io/wagtail_lottie/5fa167387ade4cf39bcd5435318b07ac/images/img_40.png"></image></g><g style="display: block;" transform="matrix(1,0,0,1,318.4150085449219,418.677978515625)" opacity="1"><image width="92px" height="145px" preserveAspectRatio="xMidYMid slice" xlink:href="https://static.snoweb.io/wagtail_lottie/5fa167387ade4cf39bcd5435318b07ac/images/img_39.png"></image></g><g style="display: block;" transform="matrix(1,0,0,1,372.1709899902344,449.87200927734375)" opacity="1"><image width="92px" height="145px" preserveAspectRatio="xMidYMid slice" xlink:href="https://static.snoweb.io/wagtail_lottie/5fa167387ade4cf39bcd5435318b07ac/images/img_38.png"></image></g><g style="display: block;" transform="matrix(1,0,0,1,426.8659973144531,478.86700439453125)" opacity="1"><image width="92px" height="145px" preserveAspectRatio="xMidYMid slice" xlink:href="https://static.snoweb.io/wagtail_lottie/5fa167387ade4cf39bcd5435318b07ac/images/img_37.png"></image></g><g clip-path="url(#__lottie_element_145)" style="display: block;" transform="matrix(1,0,0,1,0,0)" opacity="1"><g style="display: block;" transform="matrix(1,0,0,1,599.9429931640625,336.4989929199219)" opacity="1"><image width="75px" height="381px" preserveAspectRatio="xMidYMid slice" xlink:href="https://static.snoweb.io/wagtail_lottie/5fa167387ade4cf39bcd5435318b07ac/images/img_35.png"></image></g><g style="display: block;" transform="matrix(1,0,0,1,643.9879760742188,476.49200439453125)" opacity="1"><image width="22px" height="36px" preserveAspectRatio="xMidYMid slice" xlink:href="https://static.snoweb.io/wagtail_lottie/5fa167387ade4cf39bcd5435318b07ac/images/img_34.png"></image></g><g style="display: block;" transform="matrix(-0.6391837000846863,-0.769054114818573,0.769054114818573,-0.6391837000846863,648.1821899414062,500.1760559082031)" opacity="1"><image width="5px" height="11px" preserveAspectRatio="xMidYMid slice" xlink:href="https://static.snoweb.io/wagtail_lottie/5fa167387ade4cf39bcd5435318b07ac/images/img_33.png"></image></g><g style="display: block;" transform="matrix(1,0,0,1,607.864990234375,476.49200439453125)" opacity="1"><image width="22px" height="36px" preserveAspectRatio="xMidYMid slice" xlink:href="https://static.snoweb.io/wagtail_lottie/5fa167387ade4cf39bcd5435318b07ac/images/img_32.png"></image></g><g style="display: block;" transform="matrix(-0.6391837000846863,-0.769054114818573,0.769054114818573,-0.6391837000846863,613.9887084960938,498.36431884765625)" opacity="1"><image width="5px" height="12px" preserveAspectRatio="xMidYMid slice" xlink:href="https://static.snoweb.io/wagtail_lottie/5fa167387ade4cf39bcd5435318b07ac/images/img_31.png"></image></g></g><g style="display: block;" transform="matrix(1,0,0,1,854.2049560546875,523.9300537109375)" opacity="1"><image width="35px" height="65px" preserveAspectRatio="xMidYMid slice" xlink:href="https://static.snoweb.io/wagtail_lottie/5fa167387ade4cf39bcd5435318b07ac/images/img_26.png"></image></g><g style="display: block;" transform="matrix(1,0,0,1,227.61900329589844,483.8039855957031)" opacity="1"><image width="42px" height="77px" preserveAspectRatio="xMidYMid slice" xlink:href="https://static.snoweb.io/wagtail_lottie/5fa167387ade4cf39bcd5435318b07ac/images/img_25.png"></image></g><g style="display: block;" transform="matrix(1,0,0,1,230.42498779296875,507.7539978027344)" opacity="1"><image width="17px" height="50px" preserveAspectRatio="xMidYMid slice" xlink:href="https://static.snoweb.io/wagtail_lottie/5fa167387ade4cf39bcd5435318b07ac/images/img_24.png"></image></g><g style="display: block;" transform="matrix(1,0,0,1,271.7229919433594,539.3399658203125)" opacity="1"><image width="186px" height="128px" preserveAspectRatio="xMidYMid slice" xlink:href="https://static.snoweb.io/wagtail_lottie/5fa167387ade4cf39bcd5435318b07ac/images/img_22.png"></image></g><g style="display: block;" transform="matrix(1,0,0,1,949.99951171875,119.05313110351562)" opacity="1"><image width="133px" height="71px" preserveAspectRatio="xMidYMid slice" xlink:href="https://static.snoweb.io/wagtail_lottie/5fa167387ade4cf39bcd5435318b07ac/images/img_21.png"></image></g><g style="display: block;" transform="matrix(1,0,0,1,346.1109924316406,550.3380126953125)" opacity="1"><image width="84px" height="64px" preserveAspectRatio="xMidYMid slice" xlink:href="https://static.snoweb.io/wagtail_lottie/5fa167387ade4cf39bcd5435318b07ac/images/img_20.png"></image></g><g style="display: block;" transform="matrix(1,0,0,1,480.4360046386719,396.3059997558594)" opacity="1"><image width="21px" height="41px" preserveAspectRatio="xMidYMid slice" xlink:href="https://static.snoweb.io/wagtail_lottie/5fa167387ade4cf39bcd5435318b07ac/images/img_19.png"></image></g><g style="display: block;" transform="matrix(1,0,0,1,211.17599487304688,511.6999816894531)" opacity="1"><image width="14px" height="44px" preserveAspectRatio="xMidYMid slice" xlink:href="https://static.snoweb.io/wagtail_lottie/5fa167387ade4cf39bcd5435318b07ac/images/img_18.png"></image></g><g style="display: block;" transform="matrix(1,0,0,1,715.3550415039062,487.88299560546875)" opacity="1"><image width="96px" height="91px" preserveAspectRatio="xMidYMid slice" xlink:href="https://static.snoweb.io/wagtail_lottie/5fa167387ade4cf39bcd5435318b07ac/images/img_0.png"></image></g></g></svg>
