<svg xmlns="http://www.w3.org/2000/svg" viewBox="0 0 1000 1000" width="1000" height="1000" class="rounded-lg w-full" preserveAspectRatio="xMidYMid meet" style="width: 100%; height: 100%; transform: translate3d(0px, 0px, 0px);"><defs><clipPath id="__lottie_element_2"><rect width="1000" height="1000" x="0" y="0"></rect></clipPath><clipPath id="__lottie_element_145"><path d="M0,0 L1000,0 L1000,1000 L0,1000z"></path></clipPath><clipPath id="__lottie_element_227"><path d="M0,0 L1000,0 L1000,1000 L0,1000z"></path></clipPath><clipPath id="__lottie_element_231"><path d="M0,0 L1000,0 L1000,1000 L0,1000z"></path></clipPath></defs><g clip-path="url(#__lottie_element_2)"><g style="display: block;" transform="matrix(1,0,0,1,-0.25,-0.25)" opacity="1"><image width="1001px" height="1001px" preserveAspectRatio="xMidYMid slice" xlink:href="https://static.snoweb.io/wagtail_lottie/5fa167387ade4cf39bcd5435318b07ac/images/img_75.png"></image></g><g style="display: block;" transform="matrix(1,0,0,1,586.0609741210938,751.5370483398438)" opacity="0.5808875940266564"><image width="101px" height="82px" preserveAspectRatio="xMidYMid slice" xlink:href="https://static.snoweb.io/wagtail_lottie/5fa167387ade4cf39bcd5435318b07ac/images/img_74.png"></image></g><g style="display: block;" transform="matrix(1,0,0,1,54.27301025390625,295.6750183105469)" opacity="1"><image width="892px" height="603px" preserveAspectRatio="xMidYMid slice" xlink:href="https://static.snoweb.io/wagtail_lottie/5fa167387ade4cf39bcd5435318b07ac/images/img_73.png"></image></g><g clip-path="url(#__lottie_element_227)" style="display: block;" transform="matrix(0.47960638999938965,0,0,0.47960638999938965,398.6214904785156,290.379638671875)" opacity="1"><g clip-path="url(#__lottie_element_231)" style="display: none;" transform="matrix(1,0,0,1,0,0)" opacity="1"><g style="display: block;" transform="matrix(1,0,0,1,713.6650390625,260.62200927734375)" opacity="1"><image width="184px" height="317px" preserveAspectRatio="xMidYMid slice" xlink:href="https://static.snoweb.io/wagtail_lottie/5fa167387ade4cf39bcd5435318b07ac/images/img_16.png"></image></g><g style="display: block;" transform="matrix(1,0,0,1,700.102783203125,371.6918029785156)" opacity="1"><image width="42px" height="36px" preserveAspectRatio="xMidYMid slice" xlink:href="https://static.snoweb.io/wagtail_lottie/5fa167387ade4cf39bcd5435318b07ac/images/img_15.png"></image></g><g style="display: block;" transform="matrix(1,0,0,1,717.6622314453125,404.9491271972656)" opacity="1"><image width="42px" height="36px" preserveAspectRatio="xMidYMid slice" xlink:href="https://static.snoweb.io/wagtail_lottie/5fa167387ade4cf39bcd5435318b07ac/images/img_14.png"></image></g><g style="display: block;" transform="matrix(1,0,0,1,739.005126953125,434.8556823730469)" opacity="1"><image width="42px" height="36px" preserveAspectRatio="xMidYMid slice" xlink:href="https://static.snoweb.io/wagtail_lottie/5fa167387ade4cf39bcd5435318b07ac/images/img_13.png"></image></g><g style="display: block;" transform="matrix(1,0,0,1,772.31689453125,463.95947265625)" opacity="1"><image width="42px" height="36px" preserveAspectRatio="xMidYMid slice" xlink:href="https://static.snoweb.io/wagtail_lottie/5fa167387ade4cf39bcd5435318b07ac/images/img_12.png"></image></g><g style="display: block;" transform="matrix(1,0,0,1,810.7825927734375,472.3721008300781)" opacity="1"><image width="42px" height="36px" preserveAspectRatio="xMidYMid slice" xlink:href="https://static.snoweb.io/wagtail_lottie/5fa167387ade4cf39bcd5435318b07ac/images/img_11.png"></image></g><g style="display: block;" transform="matrix(1,0,0,1,853.6268310546875,446.81756591796875)" opacity="1"><image width="42px" height="36px" preserveAspectRatio="xMidYMid slice" xlink:href="https://static.snoweb.io/wagtail_lottie/5fa167387ade4cf39bcd5435318b07ac/images/img_10.png"></image></g><g style="display: block;" transform="matrix(1,0,0,1,860.9707641601562,401.9300537109375)" opacity="1"><image width="42px" height="36px" preserveAspectRatio="xMidYMid slice" xlink:href="https://static.snoweb.io/wagtail_lottie/5fa167387ade4cf39bcd5435318b07ac/images/img_9.png"></image></g><g style="display: block;" transform="matrix(1,0,0,1,848.1945190429688,355.6829833984375)" opacity="1"><image width="42px" height="36px" preserveAspectRatio="xMidYMid slice" xlink:href="https://static.snoweb.io/wagtail_lottie/5fa167387ade4cf39bcd5435318b07ac/images/img_8.png"></image></g><g style="display: block;" transform="matrix(1,0,0,1,824.5400390625,312.6092834472656)" opacity="1"><image width="42px" height="36px" preserveAspectRatio="xMidYMid slice" xlink:href="https://static.snoweb.io/wagtail_lottie/5fa167387ade4cf39bcd5435318b07ac/images/img_7.png"></image></g><g style="display: block;" transform="matrix(1,0,0,1,796.8095703125,281.6144104003906)" opacity="1"><image width="42px" height="36px" preserveAspectRatio="xMidYMid slice" xlink:href="https://static.snoweb.io/wagtail_lottie/5fa167387ade4cf39bcd5435318b07ac/images/img_6.png"></image></g><g style="display: block;" transform="matrix(1,0,0,1,763.3792724609375,261.6649169921875)" opacity="1"><image width="42px" height="36px" preserveAspectRatio="xMidYMid slice" xlink:href="https://static.snoweb.io/wagtail_lottie/5fa167387ade4cf39bcd5435318b07ac/images/img_5.png"></image></g><g style="display: block;" transform="matrix(1,0,0,1,718.7273559570312,262.2032775878906)" opacity="1"><image width="42px" height="36px" preserveAspectRatio="xMidYMid slice" xlink:href="https://static.snoweb.io/wagtail_lottie/5fa167387ade4cf39bcd5435318b07ac/images/img_4.png"></image></g><g style="display: block;" transform="matrix(1,0,0,1,692.4947509765625,295.22967529296875)" opacity="1"><image width="42px" height="36px" preserveAspectRatio="xMidYMid slice" xlink:href="https://static.snoweb.io/wagtail_lottie/5fa167387ade4cf39bcd5435318b07ac/images/img_3.png"></image></g><g style="display: block;" transform="matrix(1,0,0,1,689.9246215820312,332.439453125)" opacity="1"><image width="42px" height="36px" preserveAspectRatio="xMidYMid slice" xlink:href="https://static.snoweb.io/wagtail_lottie/5fa167387ade4cf39bcd5435318b07ac/images/img_2.png"></image></g><g style="display: block;" transform="matrix(1,0,0,1,692.9630126953125,276.7900085449219)" opacity="1"><image width="177px" height="296px" preserveAspectRatio="xMidYMid slice" xlink:href="https://static.snoweb.io/wagtail_lottie/5fa167387ade4cf39bcd5435318b07ac/images/img_1.png"></image></g></g></g><g style="display: block;" transform="matrix(1,0,0,1,475.8990173339844,593.7650146484375)" opacity="1"><image width="111px" height="128px" preserveAspectRatio="xMidYMid slice" xlink:href="https://static.snoweb.io/wagtail_lottie/5fa167387ade4cf39bcd5435318b07ac/images/img_55.png"></image></g><g style="display: block;" transform="matrix(0.9348697662353516,0,0,0.9348697662353516,623.8738403320312,749.4461059570312)" opacity="1"><image width="95px" height="101px" preserveAspectRatio="xMidYMid slice" xlink:href="https://static.snoweb.io/wagtail_lottie/5fa167387ade4cf39bcd5435318b07ac/images/img_54.png"></image></g><g style="display: block;" transform="matrix(1,0,0,1,500,500)" opacity="1"><g opacity="1" transform="matrix(1,0,0,1,0,0)"><path fill="rgb(255,255,255)" fill-opacity="0.02" d=" M-266,-8 C-266,-8 -372,50 -372,50 C-372,50 0,260 0,260 C0,260 36.61000061035156,238.03399658203125 52.6349983215332,228.41900634765625"></path><path stroke-linecap="round" stroke-linejoin="round" fill-opacity="0" stroke="rgb(248,237,235)" stroke-opacity="1" stroke-width="24" d=" M-266,-8 C-266,-8 -372,50 -372,50 C-372,50 0,260 0,260 C0,260 36.61000061035156,238.03399658203125 52.6349983215332,228.41900634765625"></path></g></g><g style="display: block;" transform="matrix(1,0,0,1,648.6409912109375,473.1709899902344)" opacity="1"><image width="57px" height="63px" preserveAspectRatio="xMidYMid slice" xlink:href="https://static.snoweb.io/wagtail_lottie/5fa167387ade4cf39bcd5435318b07ac/images/img_53.png"></image></g><g style="display: block;" transform="matrix(1,0,0,1,739.5239868164062,529.1690063476562)" opacity="1"><image width="57px" height="63px" preserveAspectRatio="xMidYMid slice" xlink:href="https://static.snoweb.io/wagtail_lottie/5fa167387ade4cf39bcd5435318b07ac/images/img_52.png"></image></g><g style="display: block;" transform="matrix(1,0,0,1,358.1360168457031,328.3690185546875)" opacity="1"><image width="40px" height="45px" preserveAspectRatio="xMidYMid slice" xlink:href="https://static.snoweb.io/wagtail_lottie/5fa167387ade4cf39bcd5435318b07ac/images/img_51.png"></image></g><g style="display: block;" transform="matrix(1,0,0,1,142.60299682617188,458.8070068359375)" opacity="1"><image width="36px" height="41px" preserveAspectRatio="xMidYMid slice" xlink:href="https://static.snoweb.io/wagtail_lottie/5fa167387ade4cf39bcd5435318b07ac/images/img_50.png"></image></g><g style="display: block;" transform="matrix(1,0,0,1,96.50199890136719,481.8690185546875)" opacity="1"><image width="40px" height="45px" preserveAspectRatio="xMidYMid slice" xlink:href="https://static.snoweb.io/wagtail_lottie/5fa167387ade4cf39bcd5435318b07ac/images/img_49.png"></image></g><g style="display: block;" transform="matrix(1,0,0,1,149.79299926757812,554.968994140625)" opacity="1"><image width="36px" height="41px" preserveAspectRatio="xMidYMid slice" xlink:href="https://static.snoweb.io/wagtail_lottie/5fa167387ade4cf39bcd5435318b07ac/images/img_48.png"></image></g><g style="display: block;" transform="matrix(1,0,0,1,247.4219970703125,610.8690185546875)" opacity="1"><image width="36px" height="41px" preserveAspectRatio="xMidYMid slice" xlink:href="https://static.snoweb.io/wagtail_lottie/5fa167387ade4cf39bcd5435318b07ac/images/img_47.png"></image></g><g style="display: block;" transform="matrix(1,0,0,1,345.0489807128906,666.77001953125)" opacity="1"><image width="36px" height="41px" preserveAspectRatio="xMidYMid slice" xlink:href="https://static.snoweb.io/wagtail_lottie/5fa167387ade4cf39bcd5435318b07ac/images/img_46.png"></image></g><g style="display: block;" transform="matrix(1,0,0,1,442.67999267578125,722.6699829101562)" opacity="1"><image width="36px" height="41px" preserveAspectRatio="xMidYMid slice" xlink:href="https://static.snoweb.io/wagtail_lottie/5fa167387ade4cf39bcd5435318b07ac/images/img_45.png"></image></g><g style="display: block;" transform="matrix(1,0,0,1,400.9309997558594,105.87899780273438)" opacity="1"><image width="110px" height="295px" preserveAspectRatio="xMidYMid slice" xlink:href="https://static.snoweb.io/wagtail_lottie/5fa167387ade4cf39bcd5435318b07ac/images/img_44.png"></image></g><g style="display: block;" transform="matrix(1,0,0,1,204.07901000976562,210.53599548339844)" opacity="1"><image width="252px" height="306px" preserveAspectRatio="xMidYMid slice" xlink:href="https://static.snoweb.io/wagtail_lottie/5fa167387ade4cf39bcd5435318b07ac/images/img_43.png"></image></g><g style="display: block;" transform="matrix(1,0,0,1,200.35400390625,221.6739959716797)" opacity="1"><image width="110px" height="295px" preserveAspectRatio="xMidYMid slice" xlink:href="https://static.snoweb.io/wagtail_lottie/5fa167387ade4cf39bcd5435318b07ac/images/img_42.png"></image></g><g style="display: block;" transform="matrix(1,0,0,1,126.54400634765625,526.9410400390625)" opacity="1"><image width="408px" height="263px" preserveAspectRatio="xMidYMid slice" xlink:href="https://static.snoweb.io/wagtail_lottie/5fa167387ade4cf39bcd5435318b07ac/images/img_41.png"></image></g><g style="display: block;" transform="matrix(1,0,0,1,506.51202392578125,328.0479736328125)" opacity="1"><image width="134px" height="134px" preserveAspectRatio="xMidYMid slice" xlink:href="https://static.snoweb.io/wagtail_lottie/5fa167387ade4cf39bcd5435318b07ac/images/img_40.png"></image></g><g style="display: block;" transform="matrix(1,0,0,1,318.4150085449219,418.677978515625)" opacity="1"><image width="92px" height="145px" preserveAspectRatio="xMidYMid slice" xlink:href="https://static.snoweb.io/wagtail_lottie/5fa167387ade4cf39bcd5435318b07ac/images/img_39.png"></image></g><g style="display: block;" transform="matrix(1,0,0,1,372.1709899902344,449.87200927734375)" opacity="1"><image width="92px" height="145px" preserveAspectRatio="xMidYMid slice" xlink:href="https://static.snoweb.io/wagtail_lottie/5fa167387ade4cf39bcd5435318b07ac/images/img_38.png"></image></g><g style="display: block;" transform="matrix(1,0,0,1,426.8659973144531,478.86700439453125)" opacity="1"><image width="92px" height="145px" preserveAspectRatio="xMidYMid slice" xlink:href="https://static.snoweb.io/wagtail_lottie/5fa167387ade4cf39bcd5435318b07ac/images/img_37.png"></image></g><g clip-path="url(#__lottie_element_145)" style="display: block;" transform="matrix(0.9529615044593811,0,0,0.9529615044593811,30.12371826171875,33.05902099609375)" opacity="1"><g style="display: block;" transform="matrix(1,0,0,1,599.9429931640625,336.4989929199219)" opacity="1"><image width="75px" height="381px" preserveAspectRatio="xMidYMid slice" xlink:href="https://static.snoweb.io/wagtail_lottie/5fa167387ade4cf39bcd5435318b07ac/images/img_35.png"></image></g><g style="display: block;" transform="matrix(1,0,0,1,643.9879760742188,476.49200439453125)" opacity="1"><image width="22px" height="36px" preserveAspectRatio="xMidYMid slice" xlink:href="https://static.snoweb.io/wagtail_lottie/5fa167387ade4cf39bcd5435318b07ac/images/img_34.png"></image></g><g style="display: block;" transform="matrix(1,0,0,1,653.823974609375,485.1669921875)" opacity="0.5723492375674804"><image width="5px" height="11px" preserveAspectRatio="xMidYMid slice" xlink:href="https://static.snoweb.io/wagtail_lottie/5fa167387ade4cf39bcd5435318b07ac/images/img_33.png"></image></g><g style="display: block;" transform="matrix(1,0,0,1,607.864990234375,476.49200439453125)" opacity="1"><image width="22px" height="36px" preserveAspectRatio="xMidYMid slice" xlink:href="https://static.snoweb.io/wagtail_lottie/5fa167387ade4cf39bcd5435318b07ac/images/img_32.png"></image></g><g style="display: block;" transform="matrix(1,0,0,1,617.9119873046875,488.135009765625)" opacity="0.5723492375674804"><image width="5px" height="12px" preserveAspectRatio="xMidYMid slice" xlink:href="https://static.snoweb.io/wagtail_lottie/5fa167387ade4cf39bcd5435318b07ac/images/img_31.png"></image></g></g><g style="display: block;" transform="matrix(0.12666529417037964,0,0,0.12666529417037964,869.362548828125,552.0732421875)" opacity="1"><image width="35px" height="65px" preserveAspectRatio="xMidYMid slice" xlink:href="https://static.snoweb.io/wagtail_lottie/5fa167387ade4cf39bcd5435318b07ac/images/img_26.png"></image></g><g style="display: block;" transform="matrix(1,0,0,1,227.61900329589844,483.8039855957031)" opacity="1"><image width="42px" height="77px" preserveAspectRatio="xMidYMid slice" xlink:href="https://static.snoweb.io/wagtail_lottie/5fa167387ade4cf39bcd5435318b07ac/images/img_25.png"></image></g><g style="display: block;" transform="matrix(1,0,0,1,230.42498779296875,507.7539978027344)" opacity="1"><image width="17px" height="50px" preserveAspectRatio="xMidYMid slice" xlink:href="https://static.snoweb.io/wagtail_lottie/5fa167387ade4cf39bcd5435318b07ac/images/img_24.png"></image></g><g style="display: block;" transform="matrix(1,0,0,1,271.7229919433594,539.3399658203125)" opacity="1"><image width="186px" height="128px" preserveAspectRatio="xMidYMid slice" xlink:href="https://static.snoweb.io/wagtail_lottie/5fa167387ade4cf39bcd5435318b07ac/images/img_22.png"></image></g><g style="display: none;" transform="matrix(1,0,0,1,1022.9060668945312,31.000003814697266)" opacity="1"><image width="133px" height="71px" preserveAspectRatio="xMidYMid slice" xlink:href="https://static.snoweb.io/wagtail_lottie/5fa167387ade4cf39bcd5435318b07ac/images/img_21.png"></image></g><g style="display: block;" transform="matrix(1,0,0,1,346.1109924316406,550.3380126953125)" opacity="1"><image width="84px" height="64px" preserveAspectRatio="xMidYMid slice" xlink:href="https://static.snoweb.io/wagtail_lottie/5fa167387ade4cf39bcd5435318b07ac/images/img_20.png"></image></g><g style="display: block;" transform="matrix(1,0,0,1,480.4360046386719,396.3059997558594)" opacity="1"><image width="21px" height="41px" preserveAspectRatio="xMidYMid slice" xlink:href="https://static.snoweb.io/wagtail_lottie/5fa167387ade4cf39bcd5435318b07ac/images/img_19.png"></image></g><g style="display: block;" transform="matrix(1,0,0,1,211.17599487304688,511.6999816894531)" opacity="1"><image width="14px" height="44px" preserveAspectRatio="xMidYMid slice" xlink:href="https://static.snoweb.io/wagtail_lottie/5fa167387ade4cf39bcd5435318b07ac/images/img_18.png"></image></g><g style="display: block;" transform="matrix(1,0,0,1,715.3550415039062,487.88299560546875)" opacity="1"><image width="96px" height="91px" preserveAspectRatio="xMidYMid slice" xlink:href="https://static.snoweb.io/wagtail_lottie/5fa167387ade4cf39bcd5435318b07ac/images/img_0.png"></image></g></g></svg>
